<?xml version="1.0" encoding="iso-8859-1"?>
<!-- Generator: Adobe Illustrator 18.0.0, SVG Export Plug-In . SVG Version: 6.00 Build 0)  -->
<!DOCTYPE svg PUBLIC "-//W3C//DTD SVG 1.1//EN" "http://www.w3.org/Graphics/SVG/1.1/DTD/svg11.dtd">
<svg xmlns="http://www.w3.org/2000/svg" xmlns:xlink="http://www.w3.org/1999/xlink" version="1.1" id="Capa_1" x="0px" y="0px" viewBox="0 0 448.546 448.546" style="enable-background:new 0 0 448.546 448.546;" xml:space="preserve" width="512px" height="512px">
<g>
	<path d="M440.243,167.706c0-11.868-4.621-23.025-13.013-31.416c-8.391-8.392-19.552-13.014-31.427-13.014   c-19.69,0-36.765,13.135-42.448,31.277c-5.418-1.311-10.982-1.988-16.624-1.988c-16.155,0-32.298,5.542-45.455,15.607   c-6.048,4.628-12.589,8.308-19.475,11.001c-0.379-56.859-22.995-110.52-59.285-139.536c-2.278-4.122-5.096-7.947-8.453-11.322   l-6.029-6.063l-4.615,5.245c-14.915-7.159-30.575-9.539-45.658-6.858c-10.969,1.952-20.159,9.247-24.584,19.514   c-3.117,7.234-3.543,15.173-1.412,22.511c-1.653,0.767-3.252,1.625-4.796,2.569L8.303,0L88.68,107.432l-22.606,49.411   c-4.969,10.856-3.98,23.269,2.643,33.202c6.358,9.534,17.001,15.227,28.469,15.227c6.129,0,12.163-1.661,17.449-4.805   l17.271-10.269c-8.082,18.234-16.945,40.986-16.945,53.067c0,22.728,7.94,44.652,22.357,61.737   c5.036,5.967,10.79,11.242,17.086,15.753v127.79h33h15h42V338.559c23.455-1.98,55.128-15.9,83.098-30.766   c-0.066,3.365-0.098,6.385-0.098,9.213v131.54h32h16h41V316.088l23.84,43.529V167.706z M241.637,107.103   c9.688,23.505,14.535,49.807,14.142,76.437c-4.132,0.664-8.339,1.006-12.597,1.006h-9.405   c-2.255-16.181-8.859-56.497-22.198-87.708c5.073-8.275,7.696-17.871,7.973-27.541C228.232,80.062,235.794,92.925,241.637,107.103z    M137.871,46.486c2.323-5.393,6.95-9.072,12.69-10.094c10.537-1.87,21.194-0.621,31.788,3.684L171.452,52.46   c-1.186,1.096-2.835,1.697-4.758,1.697c-6.766,0-18.485,1.586-29.624,3.927C135.987,54.31,136.238,50.275,137.871,46.486z    M69.922,55.652l32.549,19.54l-6.209,15.667L69.922,55.652z M106.457,186.715c-2.813,1.672-6.019,2.557-9.271,2.557   c-6.107,0-11.773-3.029-15.156-8.104c-3.472-5.206-4.011-11.976-1.406-17.668l32.285-70.566c4.13-9.025,11.996-15.538,21.58-17.868   c11.51-2.798,25.355-4.908,32.305-4.908c6.164,0,11.88-2.308,16.092-6.496l15.13-17.166c7.906,13.432,7.512,32.182-1.935,44.711   l-2.878,3.817l1.998,4.343c0.569,1.237,1.126,2.496,1.672,3.775c4.245,9.944,4.454,21.294-0.004,31.145   c-3.774,8.34-10.347,14.981-19.683,19.849c-13.224,6.896-27.214,7.729-27.354,7.736l0,0c-1.263,0.129-2.484,0.532-3.575,1.181   L106.457,186.715z M187.403,335.923v71.623h-17v-77.53C175.845,332.496,181.532,334.486,187.403,335.923z M170.403,432.546v-9h17v9   H170.403z M203.403,432.546v-9h25v9H203.403z M238.937,322.8c-0.721,0-1.43-0.019-2.106-0.055l-8.428-0.452v85.253h-25v-84.874   l-6.649-1.138c-18.506-3.169-35.271-12.704-47.208-26.85c-11.985-14.202-18.586-32.464-18.586-51.419   c0-10.817,12.437-41.03,24.581-65.919c6.205-0.849,17.416-3.073,28.536-8.763c9.202-4.71,19.319-12.309,25.808-24.357   c6.24,26.061,8.868,48.854,8.908,49.212l0.801,7.106h23.59c21.01,0,41.003-6.801,57.815-19.665   c10.382-7.942,23.072-12.315,35.733-12.315c6.323,0,12.518,1.071,18.414,3.185c1.911,0.685,3.44,1.347,4.545,1.969   c6.377,3.587,12.215,8.01,17.349,13.145c15.066,15.066,23.364,35.053,23.364,56.278v164.404h-25v-83.374l-4.846-2.078   c-10.421-4.471-17.154-14.845-17.154-26.429v-20.904l-12.021,6.988C295.849,308.221,259.467,322.8,238.937,322.8z M359.403,334.354   v73.191h-16v-89.347C347.211,324.822,352.678,330.427,359.403,334.354z M343.403,432.546v-9h16v9H343.403z M375.403,432.546v-9h25   v9H375.403z M424.243,297.094l-7.84-14.315v-39.637c0-25.499-9.962-49.504-28.05-67.593c-5.947-5.946-12.68-11.084-20.01-15.302   c3.324-12.102,14.51-20.971,27.46-20.971c7.601,0,14.744,2.957,20.112,8.327c5.37,5.369,8.327,12.509,8.327,20.103V297.094z" fill="#FFFFFF"/>
	<path d="M160.997,128.102c7.36-10.74,4.61-25.465-6.13-32.825c-3.948-2.705-8.56-4.136-13.333-4.136   c-7.8,0-15.087,3.838-19.492,10.267c-7.359,10.74-4.609,25.466,6.131,32.824c3.948,2.706,8.559,4.137,13.333,4.137h0.001   C149.306,138.368,156.592,134.53,160.997,128.102z M147.798,119.058c-1.421,2.073-3.772,3.311-6.292,3.311   c-1.532,0-3.016-0.462-4.29-1.335c-3.462-2.372-4.349-7.12-1.977-10.582c1.421-2.073,3.773-3.311,6.294-3.311   c1.532,0,3.016,0.462,4.289,1.334c1.677,1.149,2.807,2.884,3.18,4.882C149.375,115.355,148.948,117.38,147.798,119.058z" fill="#FFFFFF"/>
</g>
<g>
</g>
<g>
</g>
<g>
</g>
<g>
</g>
<g>
</g>
<g>
</g>
<g>
</g>
<g>
</g>
<g>
</g>
<g>
</g>
<g>
</g>
<g>
</g>
<g>
</g>
<g>
</g>
<g>
</g>
</svg>
